<?xml version="1.0" encoding="utf-8"?>
<!-- Generator: Adobe Illustrator 18.1.1, SVG Export Plug-In . SVG Version: 6.00 Build 0)  -->
<svg version="1.1" xmlns="http://www.w3.org/2000/svg" xmlns:xlink="http://www.w3.org/1999/xlink" x="0px" y="0px"
	 viewBox="0 0 960 560" enable-background="new 0 0 960 560" xml:space="preserve">
<g id="Layer_1">
	<ellipse fill="none" stroke="#FFFFFF" stroke-miterlimit="10" cx="447.8" cy="357.7" rx="32.2" ry="25"/>
	<text transform="matrix(1.0167 0 0 1 456.0005 487.585)" font-family="'Impact'" font-size="44.5551">TRANSPORTES</text>
</g>
<g id="Layer_1_copy_2">
</g>
<g id="Layer_1_copy">
	<ellipse cx="447.4" cy="356.1" rx="31.9" ry="26.9"/>
	<path fill="#CC1414" d="M453.2,391c-2.5,6.2-3.2,8-3.2,8h39.4l2.6-8H453.2z"/>
	<polygon fill="#CC1414" points="449.3,400 447.1,407 486,407 488.7,400 	"/>
	<polygon fill="#CC1414" points="446.3,409 443.1,416 483.4,416 485.3,409 	"/>
	<polygon fill="#CC1414" points="442.8,418 440.7,425 480.5,425 481.5,418 	"/>
	<polygon fill="#CC1414" points="485.3,426 483,433 519,433 522,426 	"/>
	<polygon fill="#CC1414" points="481.7,435 479.6,441 516.4,441 519,435 	"/>
	<path fill="#CC1414" d="M486,425h36c0,0,0.5-3.8,3.5-4c33,0,32.5,0,32.5,0s1.8,0,1.5,3c38.5,0,38.5,0,38.5,0l1.9-6.4l-111.8,0
		L486,425z"/>
	<polygon fill="#CC1414" points="489.4,416 492.3,409 602,409 600.3,416 	"/>
	<path fill="#CC1414" d="M503.5,381h105.2c0,0,2-5.3-5.8-6.3c-90.8,0.1-90.8,0.1-90.8,0.1S502,378,503.5,381z"/>
	<path fill="#CC1414" d="M499.3,390H539c0,0,1.3-4,3.8-4c29,0,29,0,29,0s2.4,1.7,1.1,4c34.8,0,33.4,0,33.4,0l1.9-7H501L499.3,390z"
		/>
	<polygon fill="#CC1414" points="572.5,392 570,398 604,398 605.9,392 	"/>
	<polygon fill="#CC1414" points="559.7,426 557,433 596.2,433 597.8,426 	"/>
	<polygon fill="#CC4747" points="554.1,441 556.2,435 595.8,435 594.5,441 	"/>
	<path fill="#CC1414" d="M493.3,407H602l1.8-7H570c0,0,0.7,0.4-0.8,2c-1.2,1.4-4.1,1.5-4.9,1.5H536c0,0-3.7,0.1-2.5-3.5h-37.8
		L493.3,407z"/>
	<polygon fill="#CC1414" points="499.1,391 495.8,399 534.3,399 538.3,391 	"/>
	<path fill="#CC1414" d="M731,381l2.5-7H629.2c0,0-9.1,2-8.6,7C731,381,731,381,731,381z"/>
	<path fill="#CC1414" d="M618.7,383c0,0-7.5,4.3-6,7c41.4,0,39,0,39,0s0-3,4.1-3c70.9,0,71.5,0,71.5,0l1.8-4H618.7z"/>
	<path fill="#CC1414" d="M602,435l-2.7,6h105.9c0,0,5.3-2,7.3-6C601.8,435,602,435,602,435z"/>
	<path fill="#CC1414" d="M611.3,400c0,0,0.3,5,2.1,7c97.8,0,97.8,0,97.8,0s-1.1-3.1-5.1-3.5c-53.3,0-53.2,0-53.2,0L651,400H611.3z"
		/>
	<path fill="#CC1414" d="M614.4,409h99.1c0,0,5.6,1,4.6,7c-34.4,0-34.4,0-34.4,0s1.4-1-1.1-2c-63.8,0-63.5,0-63.5,0
		S613.9,411,614.4,409z"/>
	<path fill="#CC1414" d="M682.8,418c0,0-0.1,4-3.3,6c37.3,0,38.6,0,38.6,0s2.5-1,1.3-6C683.5,418,682.8,418,682.8,418z"/>
	<path fill="#CC1414" d="M606.8,426l-3.8,7h112.6c0,0,4.3-3,1.3-7C606.4,426,606.8,426,606.8,426z"/>
	<path fill="#FFFFFF" d="M611.3,399"/>
	<polygon fill="#CC1414" points="254.6,392 252.5,399 291,399 293.5,392 	"/>
	<polygon fill="#CC1414" points="252.6,401 250.3,407 290,407 291.8,401 	"/>
	<polygon fill="#CC1414" points="250,409 289,409 287.3,416 248.3,416 	"/>
	<polygon fill="#CC1414" points="248.3,418 245.8,425 285.3,425 287,418 	"/>
	<path fill="#CC1414" d="M258,381c0,0,4-6,10-7h94c0,0,5.7,4.8,5,7C258,381,258,381,258,381z"/>
	<polygon points="428,452 439,452 439,485 417,485 	"/>
	<polygon points="387,452 418,452 406.8,484 378,484 	"/>
	<polygon points="351,452 379,452 369,484 340,484 	"/>
	<polygon points="314,452 337,452 326.5,484 303,484 	"/>
	<polygon points="278,452 298,452 290,484 268,484 	"/>
	<polygon points="237,452 260,452 248.5,484 228,484 	"/>
	<polygon points="202,452 218,452 210,484 192,484 	"/>
	<polygon points="167,452 177,452 167,484 155,484 	"/>
	<polygon points="129,452 138,452 125,484 116,484 	"/>
	<polygon fill="#CC1414" points="336.7,392 335,399 369.3,399 371.3,392 	"/>
	<polygon fill="#CC1414" points="334.3,401 333.2,406.2 367.2,406.3 368.9,401 	"/>
	<polygon fill="#CC1414" points="333,408 330.7,416 364.8,416 367,408 	"/>
	<polygon fill="#CC1414" points="330.3,418 328.8,424 363.5,424 364.8,418 	"/>
	<path fill="#CC1414" d="M257.6,383H367c0,0,3.8,5,4.3,7c-35.3,0-34.3,0-34.3,0s0-3-2.5-3c-37.8,0-37.8,0-37.8,0s-4.1,1-3.3,3
		c-38.3,0-38.3,0-38.3,0L257.6,383z"/>
	<path fill="#CC1414" d="M369.3,418c0,0-1.6,4-1.6,6c38,0,37.4,0,37.4,0s0-6,2.3-6C368.3,418,369.3,418,369.3,418z"/>
	<path fill="#CC1414" d="M367.7,435c0,0-1,6,2,6c102.8,0,104.8,0,104.8,0l2-6H367.7z"/>
	<path fill="#CC1414" d="M244,435c0,0,0.8,4,4.3,6c105.8,0,106.7,0,106.7,0s4-4,4.5-6C243.1,435,244,435,244,435z"/>
	<polygon fill="#CC1414" points="114,434 111.8,441 148,441 151.5,434 	"/>
	<polygon fill="#CC1414" points="115.9,432 119.4,425 157.2,425 152.8,432 	"/>
	<polygon fill="#CC1414" points="119.4,423 123,417 162,417 158.3,423 	"/>
	<path fill="#CC1414" d="M124,415l3-6h103c0,0,12.1,4,11.1,7h-37.3c0,0-0.1-3.9-3.8-4.2c-33.8-0.1-33.8,0-33.8,0s-3.8,1.7-3.5,2.8
		c0,0.2-0.1,0.4-0.3,0.4H124z"/>
	<path fill="#CC1414" d="M127.1,407l2.9-6h42.8c0,0-0.3,3,4.2,3h31.7c1.4-1,1-1.3,1.3-1.7c0.5-0.8,0.7-0.5,0.7-1.3h34.9
		c0,0-2.3,5-5,6H127.1z"/>
	<path fill="#CC1414" d="M211.1,399l2.1-7H246c0,0,1,5,0,7C211.1,399,211.1,399,211.1,399z"/>
	<polygon fill="#CC1414" points="130.5,399 134.8,392 177,392 173.5,399 	"/>
	<path fill="#CC1414" d="M139.3,383l-4,7l41.8,0c0,0,0.7-3.5,5.6-3c28.5,0.1,28.5,0.1,28.5,0.1s4.7,0.6,3.2,2.9
		c-0.1,0.2,0.8,0,1.1,0c32.3,0,31.6,0,31.6,0s-1-6-5-7H139.3z"/>
	<path fill="#CC1414" d="M204.8,418l-3,7H239c0,0,3-4.5,1.8-7C207.8,418,204.8,418,204.8,418z"/>
	<path fill="#CC1414" d="M238.5,427.1c0,0,1.7,1.4-0.8,5.9c-38,0-37.8,0-37.8,0l1.8-6L238.5,427.1z"/>
	<polygon fill="#CC1414" points="199,435 196.8,441 236,441 237.5,435 	"/>
	<path fill="#CC1414" d="M139.3,381c0,0,2.9-6,6.9-7c94.3,0,92.9,0,92.9,0s4.9,4,4.9,7C141.3,381,139.3,381,139.3,381z"/>
	<path fill="#FFFFFF" d="M428,383.8"/>
	<path fill="#CC1414" d="M367,426h38.7c0,0,14.7,11.5,35,0c38.5,0,38.5,0,38.5,0l-2.2,7H367V426z"/>
	<path fill="#CC1414" d="M477,374h20l-2.3,7h-27.6C467.2,381,475.2,379.7,477,374z"/>
	<path fill="#CC1414" d="M386.5,377.5l1-3.5h31.2c0,0,4.6,5.9,8.3,7c-42.1,0-41.6,0-41.6,0C385.4,381,386.5,377.5,386.5,377.5z"/>
	<path d="M545.7,363.5c0,0,2.3-16.5,18.3-27.5c134.5,0,133,0,133,0c0,8,0,8,0,8l3.8-8H711v4c0,0-6.3-0.5-7,3
		c-0.3,5.3,0.1,8.1-6.1,11.4c-8,0.8-12.5,2.6-14,9.6c-77,0-77,0-77,0l-0.6,2H690l0.3,3H591v-5.8c0,0-9.8-13.3-21.3,0.2
		C543.9,363.5,545.7,363.5,545.7,363.5z"/>
	<rect x="545" y="365" width="24" height="4"/>
	<path d="M712.5,366c0.5,4,0.5,5,0.5,5h20.5l1.3-18.5L731,366H712.5z"/>
	<path fill="#CC1414" d="M611.3,392v6.1c0,0,2.2,0.1,0,0L651,398c0,0-2.7-1,0-6H611.3z"/>
	<path fill="#CC1414" d="M245.5,427l-1.5,6h116.8l1.8-7h-33.8c0,0,0.3,2-1.7,4c-39.5,0-39.5,0-39.5,0s-4.9-0.7-3.4-3
		C245.5,427,245.5,427,245.5,427z"/>
	<path fill="#CC1414" d="M384.9,382.7l-3.5,7.3h111.4l2-7H465c0,0-16.8,7-35.2-0.3C380.6,382.6,383,383,384.9,382.7"/>
	<path d="M482.5,368.2c0,0,2.5-5.4,0.7-7.6c-0.1-0.1,0-0.3,0.1-0.3H544c0.6-0.3-0.2,3.4-0.5,7.8H482.5z"/>
	<path d="M484,358c0,0,1.7-5.8-1.3-11c67.8,0,67.8,0,67.8,0s-5.3,8-5.5,11C483.8,358,484,358,484,358z"/>
	<path fill="#CC1414" d="M690,363.8c0,0,11-15.1,22-1.1c0,2.8,0,2.3,0,2.3h16v-3c0,0,5.5-7.3,1.6-12.2c0.3-6.8-0.9-7.8-0.9-7.8H708
		c-1.3,0.3-1.8,2.3-1.8,2.3s1.2,5.4-1.5,7.8c-3.8,3.3-2.1,3.1-2.5,2.5c0,0-3.6,2.7-5.3,1.5c-4.8,1-4.8,1-4.8,1s-5.9,2.5-6.1,6.3"/>
	<ellipse cx="579.7" cy="366.4" rx="8.2" ry="6.9"/>
	<path d="M471.1,335c0,0,7.1,6,8.9,9c72.5,0,72.5,0,72.5,0s4-7,8.3-9C469.5,335,471.1,335,471.1,335z"/>
	<path fill="none" d="M381,442"/>
	<path fill="none" d="M349,442"/>
	<path fill="none" d="M614,392"/>
	<path fill="none" d="M605,392"/>
	<path fill="none" d="M683,418"/>
	<path fill="none" d="M599,418"/>
	<line fill="none" x1="468" y1="381" x2="495" y2="381"/>
	<path fill="none" d="M128,401"/>
	<path fill="none" d="M253,401"/>
	<path fill="none" d="M554,435"/>
	<path fill="none" d="M519,435"/>
	<path fill="none" d="M287,441"/>
	<path fill="none" d="M122,441"/>
	<rect x="715" y="345" fill="#FFF2F2" width="9" height="6"/>
	<ellipse cx="701.8" cy="365.4" rx="8.3" ry="6.9"/>
</g>
</svg>
