<?xml version="1.0" encoding="utf-8"?>
<!-- Generator: Adobe Illustrator 18.1.1, SVG Export Plug-In . SVG Version: 6.00 Build 0)  -->
<svg version="1.1" xmlns="http://www.w3.org/2000/svg" xmlns:xlink="http://www.w3.org/1999/xlink" x="0px" y="0px"
	 viewBox="0 0 747 180" enable-background="new 0 0 747 180" xml:space="preserve">
<g id="Layer_1">
	<text transform="matrix(1.0167 0 0 1 394.8907 171.4877)" font-family="'Impact'" font-size="44.5551">TRANSPORTES</text>
</g>
<g id="Layer_1_copy_2">
</g>
<g id="Layer_1_copy">
	<ellipse cx="386.3" cy="40" rx="31.9" ry="26.9"/>
	<path fill="#BF161C" d="M391.2,76c-2.2,7-2.5,6-2.5,6h39.5l1.8-6H391.2z"/>
	<polygon fill="#CC1414" points="388.6,84 386,91 424.9,91 428.1,84 	"/>
	<polygon fill="#CC1414" points="385.2,93 383.1,100 422.3,100 424.1,93 	"/>
	<polygon fill="#CC1414" points="382.3,102 380.6,108 418.9,108 421,102 	"/>
	<polygon fill="#CC1414" points="426.1,110 423.8,117 457.9,117 460.9,110 	"/>
	<polygon fill="#CC1414" points="423.2,119 421.6,125 455.3,125 457.9,119 	"/>
	<path fill="#CC1414" d="M426.7,108h34.4c0,0,0.3-3,3.3-3c33,0,32.5,0,32.5,0s1.8,0,1.5,3c38.5,0,38.5,0,38.5,0l1.9-6.5l-110.5,0.4
		L426.7,108z"/>
	<polygon fill="#CC1414" points="429.3,100 431.1,93 540.9,93 539.2,100 	"/>
	<path fill="#CC1414" d="M440.4,65h107.3c0,0,2-5.3-5.8-6.3c-90.8,0.1-90.8,0.1-90.8,0.1S438.9,62,440.4,65z"/>
	<path fill="#CC1414" d="M438.2,74h39.7c0,0,1.3-4,3.8-4c29,0,29,0,29,0s2.4,2,1.1,4c34.7,0,33.4,0,33.4,0l1.9-7H439.9L438.2,74z"/>
	<polygon fill="#CC1414" points="511.4,76 508.9,82 542.9,82 544.8,76 	"/>
	<polygon fill="#CC1414" points="498.6,110 495.9,117 535.1,117 536.6,110 	"/>
	<polygon fill="#CC1414" points="493,125 495.1,119 534.7,119 533.4,125 	"/>
	<path fill="#CC1414" d="M432.2,90.9h108.7l1.8-7h-33.8c0,0,0.7,0.4-0.8,2c-1.2,1.4-4.1,1.5-4.9,1.5h-28.3c0,0-3.7,0.1-2.5-3.5
		h-37.8L432.2,90.9z"/>
	<polygon fill="#CC1414" points="437.1,76 434.9,82.5 472.2,82.6 476.2,76 	"/>
	<path fill="#CC1414" d="M669.9,65l2.5-7H568.1c0,0-9.1,2-8.6,7C669.9,65,669.9,65,669.9,65z"/>
	<path fill="#CC1414" d="M557.6,67c0,0-7.5,4-6,7c41.4,0,39,0,39,0s0-3,4.1-3c70.9,0,71.5,0,71.5,0l1.8-4H557.6z"/>
	<path fill="#CC1414" d="M540.9,119l-2.7,6h105.9c0,0,5.3-2,7.3-6C540.6,119,540.9,119,540.9,119z"/>
	<path fill="#CC1414" d="M550.1,84c0,0,0.3,5,2.1,7c97.8,0,97.8,0,97.8,0s-1.1-3.1-5.1-3.5c-53.3,0-53.2,0-53.2,0l-1.8-3.5H550.1z"
		/>
	<path fill="#CC1414" d="M553.3,93h99.1c0,0,5.6,1,4.6,7c-34.4,0-34.4,0-34.4,0s1.4-1-1.1-2c-63.8,0-63.5,0-63.5,0
		S552.8,95,553.3,93z"/>
	<path fill="#CC1414" d="M621.7,102c0,0-0.1,4-3.3,6c37.3,0,38.6,0,38.6,0s2.5-1,1.3-6C622.4,102,621.7,102,621.7,102z"/>
	<path fill="#CC1414" d="M545.7,110l-3.8,7h112.6c0,0,4.3-3,1.3-7C545.3,110,545.7,110,545.7,110z"/>
	<path fill="#FFFFFF" d="M550.1,82.9"/>
	<polygon fill="#CC1414" points="194.5,76 192.4,83 230.1,83 232.4,76 	"/>
	<polygon fill="#CC1414" points="191.8,85 189.9,91 228.1,91 229.7,85 	"/>
	<polygon fill="#CC1414" points="189.5,93 227.7,93 226.1,100 187.9,100 	"/>
	<polygon fill="#CC1414" points="187.7,102 185.9,109 223.6,109 224.9,102 	"/>
	<path fill="#CC1414" d="M196.9,64.9c0,0,4-6,10-7h94c0,0,5.7,4.8,5,7C196.9,64.9,196.9,64.9,196.9,64.9z"/>
	<polygon points="366.9,136 377.9,136 377.9,169 355.9,169 	"/>
	<polygon points="325.9,136 356.9,136 345.6,168 316.9,168 	"/>
	<polygon points="289.9,136 317.9,136 307.9,168 278.9,168 	"/>
	<polygon points="252.9,136 275.9,136 265.4,168 241.9,168 	"/>
	<polygon points="216.9,136 236.9,136 228.9,168 206.9,168 	"/>
	<polygon points="175.9,136 198.9,136 187.4,168 166.9,168 	"/>
	<polygon points="140.9,136 156.9,136 148.9,168 130.9,168 	"/>
	<polygon points="105.9,136 115.9,136 105.9,168 93.9,168 	"/>
	<polygon points="67.9,136 76.9,136 63.9,168 54.9,168 	"/>
	<polygon fill="#CC1414" points="275.6,76 273.9,83 308.1,83 310.2,76 	"/>
	<polygon fill="#CC1414" points="273.2,85 272.1,90.2 306.1,90.3 307.8,85 	"/>
	<polygon fill="#CC1414" points="271.9,92 269.6,100 303.7,100 305.9,92 	"/>
	<polygon fill="#CC1414" points="269.2,102 267.6,108 301.3,108 302.8,102 	"/>
	<path fill="#CC1414" d="M196.5,67h109.4c0,0,3.8,5,4.3,7c-35.3,0-34.3,0-34.3,0s0-3-2.5-3c-37.7,0-37.7,0-37.7,0s-4.1,1-3.3,3
		c-38,0.3-37.3,0.1-37.3,0.1L196.5,67z"/>
	<path fill="#CC1414" d="M308.1,102c0,0-1.6,4-1.6,6c38,0,37.4,0,37.4,0s0-6,2.3-6C307.2,102,308.1,102,308.1,102z"/>
	<path fill="#CC1414" d="M306.6,119c0,0-1,6,2,6c102.8,0,104.8,0,104.8,0l2-6H306.6z"/>
	<path fill="#CC1414" d="M182.9,119c0,0,0.8,4,4.3,6c105.7,0,106.7,0,106.7,0s4-4,4.5-6C182,119,182.9,119,182.9,119z"/>
	<polygon fill="#CC1414" points="53.9,118 50.9,125 87.9,125 91.4,118 	"/>
	<polygon fill="#CC1414" points="54.9,116.4 58.3,109 96.1,109 92.8,116 	"/>
	<polygon fill="#CC1414" points="59.3,107 61.9,101 100.8,101 97.1,107 	"/>
	<path fill="#CC1414" d="M62.9,98.9l3-6h103c0,0,12.1,4,11.1,7h-37.3c0,0-0.1-3.9-3.8-4.2c-33.8-0.1-33.8,0-33.8,0s-3.8,1.7-3.5,2.8
		c0,0.2-0.1,0.4-0.3,0.4H62.9z"/>
	<path fill="#CC1414" d="M66.9,90.2l2-5.3h42.8c0,0-0.3,3,4.2,3h31.7c1.4-1,1-1.3,1.3-1.7c0.5-0.8,0.7-0.5,0.7-1.3h34.3
		c0,0-1.6,5-4.4,6L66.9,90.2z"/>
	<path fill="#CC1414" d="M150,83l2.1-7h32.8c0,0,1,5,0,7C150,83,150,83,150,83z"/>
	<polygon fill="#CC1414" points="70.1,83 73.6,76 115.9,76 112.4,83 	"/>
	<path fill="#CC1414" d="M77.4,66.9l-3.3,7l41.8,0c0,0,0.7-3.5,5.6-3C150,71,150,71,150,71s4.7,0.6,3.2,2.9c-0.1,0.2,0.8,0,1.1,0
		c32.3,0,31.6,0,31.6,0s-1-6-5-7H77.4z"/>
	<path fill="#CC1414" d="M143.6,102l-3,7h37.3c0,0,3-5,1.8-7C146.6,102,143.6,102,143.6,102z"/>
	<path fill="#CC1414" d="M177.4,111.1c0,0,1.7,0.9-0.8,5.9c-38,0-37.8,0-37.8,0l1.8-6L177.4,111.1z"/>
	<polygon fill="#CC1414" points="137.9,119 135.6,125 174.9,125 176.4,119 	"/>
	<path fill="#CC1414" d="M78.1,65c0,0,2.9-6,6.9-7c94.3,0,92.9,0,92.9,0s4.9,4,4.9,7C80.1,65,78.1,65,78.1,65z"/>
	<path fill="#FFFFFF" d="M366.9,67.7"/>
	<path fill="#CC1414" d="M305.9,110h38.7c0,0,14.7,11,35,0c38.5,0,38.5,0,38.5,0l-2.2,7h-110V110z"/>
	<path fill="#CC1414" d="M415.9,58h20l-2.3,7h-27.6C406.1,65,414.1,64,415.9,58z"/>
	<path fill="#BF161C" d="M325.4,61.4l1-3.5h31.2c0,0,4.6,5.9,8.3,7c-42.1,0-41.6,0-41.6,0C324.3,64.9,325.4,61.4,325.4,61.4z"/>
	<path d="M484.6,47.5c0,0,2.3-16.5,18.3-27.5c134.5,0,133,0,133,0c0,8,0,7.9,0,7.9l3.8-7.9h10.3v3.9c0,0-6.3-0.5-7,3
		c-0.3,5.3,0.1,8.2-6.1,11.4c-8,0.8-12.5,2.7-14,9.7c-77,0-77,0-77,0l-0.6,2h83.8l0.3,3h-99.3v-5.9c0,0-9.8-13.3-21.3,0.2
		C482.8,47.4,484.6,47.5,484.6,47.5z"/>
	<rect x="483.9" y="49" width="24" height="4"/>
	<path d="M651.4,50c0.5,4,0.5,5,0.5,5h20.5l1.3-18.5L669.9,50H651.4z"/>
	<path fill="#CC1414" d="M550.1,75.9V82c0,0,2.2,0.1,0,0l39.8-0.1c0,0-2.7-1,0-6H550.1z"/>
	<path fill="#CC1414" d="M185.3,111l-1.6,6h115.5l1.8-7h-33.5c0,0,0.3,2-1.7,4c-39.5,0-39.5,0-39.5,0s-4.9-1-3.4-3
		C184.3,111,185.3,111,185.3,111z"/>
	<path fill="#BF161C" d="M323.3,67.7c-1.9,0.3,0,0,46.1,0c18.3,7.3,34.5-0.7,34.5-0.7h29.7l-3.5,7H320.2L323.3,67.7"/>
	<path d="M421.2,52.1c0,0,2.7-3.8,1.7-7.7c0-0.1-1,0-0.9,0l60.8,0c0.6-0.3-0.2,3.3-0.5,7.7L421.2,52.1z"/>
	<path d="M422.9,42c0,0,1.7-5.8-1.3-11.1c67.8,0,67.8,0,67.8,0s-5.3,8.1-5.5,11.1C422.7,42,422.9,42,422.9,42z"/>
	<path fill="#CC1414" d="M629.6,46.9c0,0,10.1-13.9,21-0.7c0.2,0.3,0.4,0.7,0.4,1.1v0c0,0.9,0.7,1.7,1.7,1.7h12.7
		c0.9,0,1.7-0.7,1.7-1.7v-0.8c0-0.3,0.1-0.7,0.3-0.9c1-1.5,4.4-7.1,1.6-11.4c-0.2-0.3-0.3-0.7-0.3-1c0.1-3.1-0.1-4.9-0.4-5.9
		c-0.2-0.7-0.8-1.3-1.6-1.3h-19.6c-0.9,0.2-1.4,1.2-1.6,1.8c-0.1,0.3-0.1,0.6-0.1,0.9c0.2,1.3,0.7,5.4-1.6,7.4
		c-3.8,3.3-2.1,3.1-2.5,2.5c0,0-2.6,1-4.9,1.7c-0.3,0.1-0.6-0.1-0.9-0.1l-4,0.8c-0.1,0-0.2,0.1-0.3,0.1c-1,0.4-5.8,2.8-5.9,6.3
		C629.6,46.9,629.6,46.9,629.6,46.9z"/>
	<ellipse cx="518.6" cy="50.3" rx="8.2" ry="6.9"/>
	<path d="M413.1,19c0,0,5.4,6,7.2,9c72.5,0,71.1,0,71.1,0s4-7,8.3-9C408.4,19,413.1,19,413.1,19z"/>
	<path fill="none" d="M319.9,125.9"/>
	<path fill="none" d="M287.9,125.9"/>
	<path fill="none" d="M552.9,75.9"/>
	<path fill="none" d="M543.9,75.9"/>
	<path fill="none" d="M621.9,101.9"/>
	<path fill="none" d="M537.9,101.9"/>
	<line fill="none" x1="409.3" y1="64.9" x2="433.9" y2="64.9"/>
	<path fill="none" d="M66.9,84.9"/>
	<path fill="none" d="M189.9,84.9"/>
	<path fill="none" d="M492.9,118.9"/>
	<path fill="none" d="M457.9,118.9"/>
	<path fill="none" d="M225.9,124.9"/>
	<path fill="none" d="M60.9,124.9"/>
	<rect x="653.9" y="29" fill="#FFFFFF" width="9" height="6"/>
	<ellipse cx="640.7" cy="49.3" rx="8.3" ry="6.9"/>
	<path fill="none" d="M308.9,75.9"/>
	<line fill="none" x1="431.9" y1="91" x2="540.9" y2="91"/>
	<line fill="none" x1="494.9" y1="93" x2="540.9" y2="93"/>
	<path fill="none" stroke="#333333" stroke-miterlimit="10" d="M409.7,136"/>
	<path fill="none" stroke="#333333" stroke-miterlimit="10" d="M430.1,76"/>
	<path fill="none" d="M47.3,132.9"/>
	<path fill="none" d="M82.6,55.5"/>
</g>
</svg>
